<svg class="logo" xmlns="http://www.w3.org/2000/svg" xmlns:xlink="http://www.w3.org/1999/xlink"
  viewBox="0 0 100 100">
  <defs>
    <style>
      .svg {
        fill: none;
        stroke-linecap: round;
        stroke-miterlimit: 10;
        stroke-width: 1.75px;
        stroke: url(#linear-gradient);
      }

      path {
        stroke-dasharray: 100;
        stroke-dashoffset: 0;
        stroke-linecap: round;
        animation: pathStroke 5s infinite ease-in-out alternate;
      }

      @keyframes pathStroke {
        0% {
          stroke-dashoffset: -100;
          filter: drop-shadow(0 0 8px #df675c);
        }

        10% {
          filter: drop-shadow(0 0 2px #df675c);
        }

        20% {
          filter: drop-shadow(0 0 8px #df675c);
        }

        30% {
          filter: drop-shadow(0 0 2px #df675c);
        }

        40%,
        70% {
          stroke-dashoffset: 0;
          filter: drop-shadow(0 0 8px #df675c);
        }

        50% {
          filter: drop-shadow(0 0 2px #df675c);
        }

        90% {
          filter: drop-shadow(0 0 8px #df675c);
        }

        100% {
          stroke-dashoffset: 100;
          filter: drop-shadow(0 0 2px #df675c);
        }
      }
    </style>
    <linearGradient id="linear-gradient" x1="2143.82" y1="3234.41" x2="3103.56" y2="2354.64"
      gradientTransform="translate(-243.13 -225.98) scale(0.1)" gradientUnits="userSpaceOnUse">
      <stop offset="0" stop-color="#1f005c" />
      <stop offset="0.09" stop-color="#2c005d" />
      <stop offset="0.18" stop-color="#47005f" />
      <stop offset="0.27" stop-color="#680060" />
      <stop offset="0.36" stop-color="#8b0460" />
      <stop offset="0.45" stop-color="#ac265e" />
      <stop offset="0.55" stop-color="#c9475c" />
      <stop offset="0.64" stop-color="#df675c" />
      <stop offset="0.73" stop-color="#ef855e" />
      <stop offset="0.82" stop-color="#f89e63" />
      <stop offset="0.91" stop-color="#fdaf69" />
      <stop offset="1" stop-color="#ffb56b" />
    </linearGradient>
  </defs>
  <path class="svg" pathLength="100" transform='translate(4, 0)'
    d="M23.8,6.81a7,7,0,0,0-2.64,1.81c-.33.58-.66,19.08-.66,41.21,0,47.15-.74,43.6,9.08,43.6,4.63,0,5.78-.24,5.78-1.24S34.21,91,30.16,91c-3,0-5.61-.42-6.19-1-.75-.75-1-10.82-1-40.47,0-38.15.08-39.47,1.57-40.3,2-1.07,21.55-1.07,29.73,0C72.69,11.6,80,23.32,80,50.33c-.08,25.6-6.77,36.66-24.2,39.88-7.84,1.49-8,1.32-8-7.43,0-7.93.25-8.34,4.79-8.34,3.47,0,7.52-3,9.25-6.85,1.4-3,1.65-5.45,1.65-17.18,0-14.37-.58-17.92-3.63-21.31-2.64-3-6.44-4.21-13.21-4.21-5.29,0-6.36.25-7.11,1.65-1.32,2.48-.74,66.23.58,66.65.83.33,1.07-6.78,1.24-32.54l.25-32.53a.35.35,0,0,1,.34-.35l4.78-.24c7.1-.33,10.57,1.24,12.63,5.78C60.72,36.37,61,38.77,61,49.91c0,14.29-.66,17.18-4.54,20.24A8.79,8.79,0,0,1,51.8,72a13.18,13.18,0,0,0-4.38.83c-2.15.74-2.15.91-2.15,9.74,0,5.87.33,9.25,1,9.91,2.56,2.56,16-.08,22.63-4.46C78.22,81.79,81.61,73.45,82.19,55c.74-21.63-1.57-31.71-9.25-40C68.4,10.19,63.19,7.8,55,6.72,47.17,5.73,26.45,5.73,23.8,6.81Z" />
</svg>