<?xml version="1.0" standalone="no"?>
<!DOCTYPE svg PUBLIC "-//W3C//DTD SVG 20010904//EN"
 "http://www.w3.org/TR/2001/REC-SVG-20010904/DTD/svg10.dtd">
<svg version="1.0" xmlns="http://www.w3.org/2000/svg"
 width="700.000000pt" height="700.000000pt" viewBox="0 0 700.000000 700.000000"
 preserveAspectRatio="xMidYMid meet">
<metadata>
Created by potrace 1.14, written by Peter Selinger 2001-2017
</metadata>
<g transform="translate(0.000000,700.000000) scale(0.100000,-0.100000)"
fill="#000000" stroke="none">
<path d="M1008 5805 c-2 -2 -52 -6 -111 -10 -162 -10 -203 -18 -272 -53 -70
-35 -111 -68 -124 -100 -26 -64 -36 -693 -36 -2357 0 -1474 4 -1657 40 -1835
3 -14 7 -35 9 -46 18 -87 79 -169 151 -200 68 -30 522 -24 598 7 60 25 84 93
51 144 -27 41 -84 56 -243 61 -242 7 -340 21 -342 47 0 7 -2 19 -3 27 -24 119
-31 601 -31 2110 0 1267 5 1734 20 1845 13 96 14 97 77 111 125 26 1037 26
1313 0 181 -18 296 -37 405 -66 460 -127 725 -387 880 -860 35 -107 81 -304
95 -410 3 -25 8 -56 10 -70 8 -48 19 -169 30 -330 7 -105 8 -579 1 -675 -3
-38 -8 -104 -11 -145 -13 -169 -46 -377 -86 -532 -128 -505 -417 -821 -876
-957 -219 -64 -486 -106 -531 -82 -38 20 -46 78 -46 341 -1 306 5 359 46 381
12 6 59 13 107 16 180 9 300 61 421 183 103 102 183 258 204 395 14 91 16 119
22 210 6 113 6 835 0 965 -19 398 -66 546 -221 703 -86 86 -205 147 -350 179
-87 19 -131 22 -350 22 -278 1 -313 -4 -369 -57 -56 -54 -61 -86 -73 -512 -13
-489 -6 -1855 12 -2370 21 -600 33 -685 100 -685 23 0 65 33 66 53 0 7 2 21 5
32 28 137 35 444 49 2440 4 468 8 851 9 853 7 7 135 13 276 14 307 1 444 -65
535 -257 74 -156 80 -220 80 -835 0 -606 -10 -719 -75 -857 -37 -80 -120 -162
-204 -203 -64 -31 -79 -34 -186 -45 -137 -14 -246 -51 -284 -96 -46 -54 -50
-91 -51 -429 0 -406 11 -530 52 -601 15 -25 74 -59 132 -75 26 -7 233 -8 266
-1 11 3 45 8 75 12 142 18 376 83 530 148 326 135 582 369 728 662 56 113 120
300 138 405 3 14 7 32 9 40 11 39 43 257 51 345 4 44 8 94 10 110 25 229 24
1069 0 1226 -3 13 -7 52 -10 86 -9 83 -43 271 -65 358 -55 209 -144 403 -259
565 -89 126 -265 301 -373 373 -233 154 -518 238 -889 263 -47 3 -110 7 -140
10 -58 5 -987 13 -992 9z m902 -110 c91 -4 181 -8 200 -10 150 -13 198 -19
295 -35 250 -43 449 -123 615 -247 125 -94 284 -275 372 -426 67 -115 148
-317 173 -434 41 -191 49 -242 61 -356 3 -34 7 -73 10 -87 22 -138 22 -948 0
-1140 -3 -19 -7 -71 -11 -115 -5 -75 -37 -298 -49 -355 -42 -192 -72 -282
-136 -416 -155 -322 -418 -541 -807 -673 -231 -79 -448 -117 -608 -108 -105 5
-143 20 -151 56 -3 14 -7 32 -9 38 -21 69 -26 754 -6 815 11 33 18 39 74 56
82 27 102 31 183 37 193 16 371 137 448 308 50 109 63 171 82 417 15 182 7
994 -10 1085 -2 11 -7 41 -10 68 -11 73 -52 184 -96 257 -52 89 -120 153 -205
196 -102 50 -193 67 -375 68 -148 0 -389 -10 -397 -17 -1 -2 -6 -323 -9 -713
-3 -390 -7 -880 -9 -1089 -2 -209 -4 -467 -4 -574 -1 -107 -3 -192 -5 -190
-13 13 -23 1752 -12 2144 5 157 16 356 22 392 12 68 48 77 304 78 269 0 391
-20 519 -85 166 -83 264 -242 295 -475 30 -219 30 -1226 1 -1390 -41 -225
-189 -415 -377 -483 -24 -8 -93 -18 -154 -22 -169 -12 -219 -49 -242 -185 -10
-55 -9 -549 1 -606 11 -67 53 -126 102 -144 71 -27 155 -22 365 20 376 77 603
186 806 389 135 136 251 323 319 516 26 76 91 326 101 390 3 19 9 62 14 95 5
33 12 89 15 125 4 36 8 76 11 90 24 148 23 811 -1 1045 -8 71 -26 215 -32 250
-8 52 -22 129 -27 155 -3 14 -11 50 -17 80 -22 105 -90 296 -149 415 -153 312
-379 516 -705 638 -71 27 -234 70 -315 82 -25 4 -52 9 -61 10 -48 9 -93 14
-174 20 -49 4 -103 9 -120 11 -118 16 -729 22 -1000 10 -385 -17 -396 -26
-413 -371 -18 -369 -7 -3583 13 -3760 17 -147 23 -161 77 -185 79 -34 170 -44
472 -49 22 -1 37 -4 33 -7 -10 -10 -59 -13 -273 -15 -210 -2 -229 1 -267 44
-21 25 -53 125 -62 197 -3 30 -8 69 -10 85 -14 117 -20 546 -19 1585 0 1562
12 2378 35 2406 17 21 106 64 145 69 21 4 50 8 64 11 14 2 99 7 190 10 91 4
166 7 167 8 6 5 596 -2 743 -9z"/>
<path d="M5632 3079 c-111 -8 -117 -15 -185 -215 -50 -149 -168 -517 -195
-614 -6 -19 -27 -89 -46 -154 -45 -150 -46 -176 -5 -210 17 -14 43 -27 57 -27
15 -1 162 -3 327 -5 165 -1 303 -3 306 -3 3 -1 6 -60 7 -132 2 -121 11 -187
29 -215 17 -24 58 -36 132 -38 103 -3 141 7 141 39 0 29 -34 41 -130 44 -36 1
-68 5 -72 9 -12 12 -16 58 -19 189 -2 137 -10 171 -43 179 -12 2 -142 6 -291
8 -148 3 -296 5 -327 5 -45 1 -58 4 -58 17 0 16 35 146 75 279 14 44 48 157
76 250 62 206 103 336 136 432 25 72 25 72 67 77 86 11 163 10 183 -2 9 -6 3
-38 -23 -127 -120 -411 -174 -604 -174 -622 0 -11 9 -28 21 -39 18 -17 38 -19
170 -19 127 0 151 2 165 17 14 14 18 41 21 150 5 223 9 288 17 295 11 11 209
15 224 5 13 -9 19 -78 26 -315 3 -130 13 -145 97 -155 l54 -7 2 -117 c2 -88
-1 -118 -10 -118 -27 -1 -132 -13 -135 -15 -7 -7 -8 -412 -1 -433 10 -27 35
-29 48 -3 11 20 19 125 22 274 1 57 5 87 13 88 96 8 114 15 133 52 13 25 17
59 17 157 1 107 -2 130 -19 158 -21 34 -34 41 -99 46 l-40 3 -2 64 c-2 35 -5
123 -8 196 -7 202 -18 213 -215 213 -193 0 -200 -10 -204 -286 l-2 -189 -85
-1 c-47 0 -93 2 -102 4 -21 5 -22 1 34 192 21 74 41 142 43 150 2 8 19 69 38
135 74 251 78 287 36 314 -28 17 -138 27 -227 20z m43 -39 c-2 -3 -21 -7 -42
-8 -55 -4 -76 -11 -96 -36 l-18 -21 10 22 c14 28 27 36 76 43 49 8 75 8 70 0z
m163 -12 c7 -7 11 -26 11 -42 l-1 -31 -7 28 c-3 16 -17 35 -31 42 -23 13 -23
14 -4 15 11 0 25 -5 32 -12z m-325 -103 c-3 -9 -8 -14 -10 -11 -3 3 -2 9 2 15
9 16 15 13 8 -4z m321 -19 c-3 -15 -8 -25 -11 -23 -2 3 -1 17 3 31 3 15 8 25
11 23 2 -3 1 -17 -3 -31z m-342 -38 c-8 -8 -9 -4 -5 13 4 13 8 18 11 10 2 -7
-1 -18 -6 -23z m279 -179 c-28 -95 -55 -177 -60 -182 -5 -5 -1 15 9 45 9 29
34 113 55 186 21 73 40 131 42 128 2 -2 -18 -82 -46 -177z m-298 116 c-3 -9
-8 -14 -10 -11 -3 3 -2 9 2 15 9 16 15 13 8 -4z m-16 -47 c-3 -8 -6 -5 -6 6
-1 11 2 17 5 13 3 -3 4 -12 1 -19z m-21 -69 c-18 -41 -21 -29 -4 18 7 19 14
30 16 25 1 -4 -4 -24 -12 -43z m697 11 c3 -3 -21 -6 -53 -6 -110 -2 -128 -16
-132 -99 0 -25 -4 -48 -8 -50 -13 -8 1 110 15 132 9 13 27 23 47 25 50 5 126
4 131 -2z m37 6 c0 -3 -4 -8 -10 -11 -5 -3 -10 -1 -10 4 0 6 5 11 10 11 6 0
10 -2 10 -4z m62 -10 c17 -4 29 -16 36 -36 13 -36 6 -41 -8 -5 -6 17 -20 27
-40 32 -17 3 -33 9 -36 14 -3 5 1 7 8 5 7 -3 25 -7 40 -10z m-836 -132 c-13
-43 -36 -119 -51 -169 -15 -49 -42 -139 -61 -200 -18 -60 -35 -119 -37 -130
-2 -11 -7 -28 -11 -37 -4 -9 -8 -38 -9 -64 -2 -43 1 -48 23 -55 23 -7 24 -7 3
-8 -13 -1 -29 9 -38 22 -17 27 -13 43 100 412 37 121 74 242 82 268 8 27 17
46 19 44 3 -2 -6 -40 -20 -83z m881 19 c-3 -10 -5 -4 -5 12 0 17 2 24 5 18 2
-7 2 -21 0 -30z m0 -45 c-3 -8 -6 -5 -6 6 -1 11 2 17 5 13 3 -3 4 -12 1 -19z
m-328 -15 c0 -5 -4 -17 -9 -28 -8 -17 -8 -16 -7 8 1 15 5 27 9 27 4 0 8 -3 7
-7z m-270 -152 c-21 -81 -26 -117 -19 -126 7 -9 45 -13 117 -14 59 -1 109 -4
112 -6 2 -3 -50 -5 -115 -5 -73 0 -124 4 -131 11 -8 8 -4 35 13 97 14 48 29
104 35 126 6 21 12 36 14 35 2 -2 -10 -55 -26 -118z m266 69 c1 -10 -2 -17 -7
-14 -4 3 -8 15 -8 26 0 26 13 15 15 -12z m342 -52 c4 -28 -6 -18 -12 12 -2 12
-1 20 2 16 4 -4 8 -16 10 -28z m-344 -3 c-7 -21 -12 -19 -10 4 0 11 5 18 9 15
4 -3 5 -11 1 -19z m344 -47 c-3 -8 -6 -5 -6 6 -1 11 2 17 5 13 3 -3 4 -12 1
-19z m-350 -20 c-3 -8 -6 -5 -6 6 -1 11 2 17 5 13 3 -3 4 -12 1 -19z m0 -40
c-3 -8 -6 -5 -6 6 -1 11 2 17 5 13 3 -3 4 -12 1 -19z m350 -20 c-3 -7 -5 -2
-5 12 0 14 2 19 5 13 2 -7 2 -19 0 -25z m118 -38 c13 -6 1 -7 -35 -3 -30 3
-57 7 -59 9 -9 8 75 2 94 -6z m44 -155 c0 -63 -4 -115 -7 -115 -4 0 -8 52 -8
115 0 63 3 115 7 115 4 0 8 -52 8 -115z m-1144 -165 c3 -5 -1 -10 -10 -10 -9
0 -13 5 -10 10 3 6 8 10 10 10 2 0 7 -4 10 -10z m395 -3 c41 -2 -27 -4 -152
-5 -126 -1 -228 1 -228 6 0 6 196 6 380 -1z m715 3 c-3 -5 -30 -9 -58 -8 l-52
1 55 7 c30 4 56 7 58 8 2 1 0 -2 -3 -8z m-478 -82 c-3 -7 -5 -2 -5 12 0 14 2
19 5 13 2 -7 2 -19 0 -25z m13 -52 c0 -3 -4 -8 -10 -11 -5 -3 -10 -1 -10 4 0
6 5 11 10 11 6 0 10 -2 10 -4z m-4 -56 c0 -11 -4 -20 -8 -20 -4 0 -8 9 -8 20
0 11 4 20 8 20 4 0 8 -9 8 -20z m-2 -55 c-4 -8 -8 -15 -10 -15 -2 0 -4 7 -4
15 0 8 4 15 10 15 5 0 7 -7 4 -15z m4 -62 c4 -58 28 -75 114 -81 88 -5 102
-12 26 -12 -79 0 -117 10 -132 34 -16 24 -28 96 -17 96 4 0 8 -17 9 -37z"/>
<path d="M4293 3066 c-58 -26 -67 -53 -67 -195 1 -206 5 -208 315 -212 167 -1
200 -7 216 -39 10 -19 8 -30 -7 -60 -21 -42 -79 -82 -185 -130 -146 -65 -211
-101 -251 -137 -111 -104 -145 -221 -148 -518 -3 -265 10 -294 137 -304 101
-8 741 -6 799 3 25 4 49 13 52 21 8 22 -22 45 -62 46 -39 1 -506 7 -698 8 -73
1 -116 5 -128 14 -16 11 -17 30 -17 162 2 271 11 340 58 425 47 85 133 144
298 206 115 43 208 114 229 176 8 24 10 57 6 90 -6 42 -13 57 -40 80 -41 33
-64 37 -293 41 -141 3 -181 7 -188 18 -10 16 -14 99 -10 196 2 46 66 54 316
39 157 -9 190 -13 254 -33 96 -30 198 -146 217 -247 25 -138 -9 -308 -82 -403
-33 -43 -85 -76 -203 -127 -223 -96 -280 -145 -310 -270 -10 -41 -9 -52 4 -72
8 -13 28 -26 43 -30 15 -3 33 -8 41 -10 7 -2 118 -7 245 -10 127 -4 232 -7
232 -8 1 0 4 -37 7 -81 3 -44 8 -88 12 -97 8 -20 50 -24 61 -6 11 18 12 178 1
210 -20 60 -55 68 -342 75 -121 3 -222 7 -224 9 -2 1 6 23 18 48 28 56 68 87
189 142 163 75 201 97 257 147 98 87 144 224 139 417 -4 180 -110 335 -265
389 -73 26 -129 31 -379 36 -170 4 -222 2 -247 -9z m194 -22 c-3 -3 -12 -4
-19 -1 -8 3 -5 6 6 6 11 1 17 -2 13 -5z m77 -2 c3 -5 -1 -9 -9 -9 -8 0 -12 4
-9 9 3 4 7 8 9 8 2 0 6 -4 9 -8z m-242 -17 c-45 -20 -54 -52 -50 -172 4 -122
11 -132 95 -144 l58 -8 -64 4 c-94 5 -96 9 -96 166 0 125 1 132 24 150 13 10
33 19 45 19 17 -1 14 -4 -12 -15z m366 8 c-10 -2 -28 -2 -40 0 -13 2 -5 4 17
4 22 1 32 -1 23 -4z m254 -42 c67 -32 136 -105 171 -181 26 -56 30 -79 33
-165 l3 -100 -9 98 c-10 127 -45 201 -129 280 -64 58 -118 83 -209 94 -29 3
-55 9 -57 13 -9 14 151 -18 197 -39z m-453 -284 c-10 -9 -59 -17 -59 -9 0 4
14 9 32 10 18 2 30 1 27 -1z m85 -7 c3 -3 -10 -6 -29 -5 -18 0 -36 2 -39 5 -3
3 10 6 29 5 18 0 36 -2 39 -5z m36 6 c0 -3 -4 -8 -10 -11 -5 -3 -10 -1 -10 4
0 6 5 11 10 11 6 0 10 -2 10 -4z m103 -5 c9 -1 17 -4 17 -9 0 -9 -92 -3 -102
7 -4 4 9 6 30 5 20 -1 45 -3 55 -3z m83 -50 c9 -12 11 -21 5 -21 -5 0 -12 9
-16 19 -3 11 -15 23 -26 26 -10 4 -19 11 -19 16 0 13 38 -14 56 -40z m6 -106
c-6 -36 -74 -92 -159 -131 -98 -47 -105 -42 -10 7 79 40 157 107 157 134 0 8
4 15 9 15 4 0 6 -11 3 -25z m336 -67 c-11 -64 -59 -167 -90 -194 -23 -19 -23
-19 -7 1 38 46 86 167 91 228 1 14 5 24 9 22 3 -3 2 -28 -3 -57z m-658 -136
c-129 -64 -182 -115 -227 -221 -14 -31 -21 -43 -18 -26 22 102 94 182 219 244
44 23 86 41 91 41 6 -1 -24 -17 -65 -38z m414 -167 c-10 -8 -23 -15 -28 -15
-6 0 -1 7 10 15 10 8 23 15 28 15 6 0 1 -7 -10 -15z m-64 -30 c-14 -8 -29 -14
-35 -14 -5 0 1 6 15 14 14 8 30 14 35 14 6 0 -1 -6 -15 -14z m-105 -47 c-111
-57 -150 -99 -180 -190 l-14 -43 6 40 c7 53 38 108 77 136 39 29 148 89 161
88 6 0 -17 -14 -50 -31z m-498 -60 c-3 -8 -6 -5 -6 6 -1 11 2 17 5 13 3 -3 4
-12 1 -19z m-7 -76 c-3 -26 -5 -67 -5 -90 0 -23 -3 -42 -8 -42 -5 0 -7 28 -4
63 4 34 6 74 6 90 1 15 5 27 9 27 5 0 6 -22 2 -48z m830 -126 c53 -13 49 -13
-85 -9 -115 3 -267 8 -368 12 -10 1 -16 4 -14 9 9 13 407 3 467 -12z m-839
-141 c2 -160 8 -172 91 -177 21 -1 35 -4 32 -7 -12 -13 -90 2 -109 20 -18 17
-20 35 -23 157 -2 75 -2 135 1 132 3 -3 7 -59 8 -125z m908 13 c-2 -77 -6 -69
-11 20 -2 28 0 52 5 52 4 0 6 -33 6 -72z m-269 -201 c58 -1 -31 -4 -197 -5
-167 -1 -303 1 -303 6 0 6 237 6 500 -1z"/>
</g>
</svg>
