<svg class="logo" fill="none" stroke-width="24" stroke="currentColor" version="1.0"
  xmlns="http://www.w3.org/2000/svg" width="128" height="128" viewBox="0 0 164 124">
  <g transform="translate(-14, 160) scale(0.1,-0.1)">
    <style>
      .logo path {
        stroke-dasharray: 100;
        stroke-dashoffset: 0;
        stroke-linecap: round;
        animation: pathStroke 5s infinite ease-in-out alternate;
      }

      @keyframes pathStroke {
        0% {
          stroke-dashoffset: -100;
          filter: drop-shadow(0 0 8px #df675c);
        }

        10% {
          filter: drop-shadow(0 0 2px #df675c);
        }

        20% {
          filter: drop-shadow(0 0 8px #df675c);
        }

        30% {
          filter: drop-shadow(0 0 2px #df675c);
        }

        40%,
        70% {
          stroke-dashoffset: 0;
          filter: drop-shadow(0 0 8px #df675c);
        }

        50% {
          filter: drop-shadow(0 0 2px #df675c);
        }

        90% {
          filter: drop-shadow(0 0 8px #df675c);
        }

        100% {
          stroke-dashoffset: 100;
          filter: drop-shadow(0 0 2px #df675c);
        }
      }
    </style>
    <linearGradient id="gradient-fill" x1="0" y1="0" x2="1200" y2="1100"
      gradientUnits="userSpaceOnUse">
      <stop offset="0" stop-color="#1f005c" />
      <stop offset="0.09090909090909091" stop-color="#2c005d" />
      <stop offset="0.18181818181818182" stop-color="#47005f" />
      <stop offset="0.2727272727272727" stop-color="#680060" />
      <stop offset="0.36363636363636365" stop-color="#8b0460" />
      <stop offset="0.4545454545454546" stop-color="#ac265e" />
      <stop offset="0.5454545454545454" stop-color="#c9475c" />
      <stop offset="0.6363636363636364" stop-color="#df675c" />
      <stop offset="0.7272727272727273" stop-color="#ef855e" />
      <stop offset="0.8181818181818182" stop-color="#f89e63" />
      <stop offset="0.9090909090909092" stop-color="#fdaf69" />
      <stop offset="1" stop-color="#ffb56b" />
    </linearGradient>
    <path pathLength="100" stroke="url(#gradient-fill)" d="M300 1499 c-13 -6 -28 -15 -32 -22 -4 -7 -8 -231 -8 -499 0 -571 -9
      -528 110 -528 56 0 70 3 70 15 0 12 -14 15 -63 15 -36 0 -68 5 -75 12 -9 9
      -12 131 -12 490 0 462 1 478 19 488 24 13 261 13 360 0 223 -29 311 -171 311
      -498 -1 -310 -82 -444 -293 -483 -95 -18 -97 -16 -97 90 0 96 3 101 58 101 42
      0 91 36 112 83 17 36 20 66 20 208 0 174 -7 217 -44 258 -32 36 -78 51 -160
      51 -64 0 -77 -3 -86 -20 -16 -30 -9 -802 7 -807 10 -4 13 82 15 394 l3 398 62
      3 c86 4 128 -15 153 -70 17 -37 20 -66 20 -201 0 -173 -8 -208 -55 -245 -15
      -12 -40 -22 -56 -22 -15 0 -39 -4 -53 -10 -26 -9 -26 -11 -26 -118 0 -71 4
      -112 12 -120 31 -31 194 1 274 54 113 75 154 176 161 399 9 262 -19 384 -112
      484 -55 59 -118 88 -217 101 -95 12 -346 12 -378 -1z" />
    <path pathLength="100" stroke="currentColor" transform="scale(.35)" d="M3280 2500 c-36 -16 -40 -27 -40 -122 0 -128 1 -128 184 -128 156 0
      176 -6 176 -53 0 -51 -53 -93 -187 -146 -170 -68 -213 -152 -213 -414 0 -134
      2 -149 20 -167 19 -19 33 -20 320 -20 260 0 300 2 300 15 0 13 -39 15 -294 15
      -248 0 -295 2 -306 15 -9 11 -11 56 -8 172 4 136 7 165 27 208 39 88 85 122
      244 180 27 9 66 34 88 55 34 32 39 42 39 83 0 37 -5 49 -26 66 -24 19 -40 21
      -168 21 -97 0 -146 4 -154 12 -7 7 -12 43 -12 90 0 103 -1 102 194 95 190 -7
      240 -21 300 -88 54 -60 70 -115 64 -213 -6 -89 -43 -173 -92 -211 -19 -14 -77
      -43 -131 -65 -108 -43 -160 -84 -175 -140 -23 -83 -21 -84 192 -90 l183 -5 3
      -67 c2 -52 6 -68 17 -68 12 0 15 15 15 68 0 37 -4 73 -8 80 -15 23 -77 32
      -230 32 l-153 0 6 23 c19 66 55 97 173 145 166 67 223 143 230 306 3 75 0 101
      -18 148 -26 71 -91 131 -164 154 -63 19 -358 30 -396 14z" />
    <path pathLength="100" stroke="currentColor" transform="scale(.35)" d="M4134 2503 c-12 -2 -29 -12 -37 -21 -15 -17 -227 -692 -227 -723 0
      -9 8 -23 18 -32 16 -15 48 -17 245 -17 l227 0 0 -110 c0 -140 7 -150 110 -150
      56 0 70 3 70 15 0 12 -14 15 -63 15 -36 0 -68 5 -75 12 -8 8 -12 50 -12 124 0
      93 -3 113 -16 118 -9 3 -117 6 -240 6 -174 0 -226 3 -230 13 -5 14 202 697
      216 711 12 12 121 20 155 12 14 -4 25 -13 25 -20 0 -8 -31 -118 -70 -245 -38
      -126 -70 -239 -70 -249 0 -11 7 -23 16 -26 20 -8 178 -8 198 0 14 5 16 28 16
      148 0 97 4 146 12 154 7 7 43 12 90 12 66 0 79 -3 88 -19 5 -11 10 -81 10
      -155 0 -151 -5 -141 75 -148 l30 -3 0 -90 0 -90 -50 -5 -50 -5 -3 -143 c-2
      -113 0 -143 10 -140 9 3 14 39 16 131 l3 127 38 0 c60 0 71 20 71 128 0 105
      -10 122 -70 122 l-38 0 -4 146 c-4 178 -1 174 -134 174 -124 0 -124 0 -124
      -182 l0 -138 -79 0 c-44 0 -82 4 -85 8 -3 5 26 112 64 238 39 126 70 241 70
      257 0 20 -7 30 -26 37 -25 10 -128 11 -170 3z" />
  </g>
</svg>