<svg class="logo" fill="none" stroke-width="24" stroke="currentColor" version="1.0"
  xmlns="http://www.w3.org/2000/svg" width="128" height="128" viewBox="0 0 124 124">
  <g transform="translate(-14, 160) scale(0.1,-0.1)">
    <style>
      .logo path {
        stroke-dasharray: 100;
        stroke-dashoffset: 0;
        stroke-linecap: round;
        animation: pathStroke 5s infinite ease-in-out alternate;
      }

      @keyframes pathStroke {
        0% {
          stroke-dashoffset: -100;
          filter: drop-shadow(0 0 8px #df675c);
        }

        10% {
          filter: drop-shadow(0 0 2px #df675c);
        }

        20% {
          filter: drop-shadow(0 0 8px #df675c);
        }

        30% {
          filter: drop-shadow(0 0 2px #df675c);
        }

        40%,
        70% {
          stroke-dashoffset: 0;
          filter: drop-shadow(0 0 8px #df675c);
        }

        50% {
          filter: drop-shadow(0 0 2px #df675c);
        }

        90% {
          filter: drop-shadow(0 0 8px #df675c);
        }

        100% {
          stroke-dashoffset: 100;
          filter: drop-shadow(0 0 2px #df675c);
        }
      }
    </style>
    <linearGradient id="gradient-fill" x1="0" y1="0" x2="1200" y2="1100"
      gradientUnits="userSpaceOnUse">
      <stop offset="0" stop-color="#1f005c" />
      <stop offset="0.09090909090909091" stop-color="#2c005d" />
      <stop offset="0.18181818181818182" stop-color="#47005f" />
      <stop offset="0.2727272727272727" stop-color="#680060" />
      <stop offset="0.36363636363636365" stop-color="#8b0460" />
      <stop offset="0.4545454545454546" stop-color="#ac265e" />
      <stop offset="0.5454545454545454" stop-color="#c9475c" />
      <stop offset="0.6363636363636364" stop-color="#df675c" />
      <stop offset="0.7272727272727273" stop-color="#ef855e" />
      <stop offset="0.8181818181818182" stop-color="#f89e63" />
      <stop offset="0.9090909090909092" stop-color="#fdaf69" />
      <stop offset="1" stop-color="#ffb56b" />
    </linearGradient>
    <path pathLength="100" stroke="url(#gradient-fill)" d="M300 1499 c-13 -6 -28 -15 -32 -22 -4 -7 -8 -231 -8 -499 0 -571 -9
      -528 110 -528 56 0 70 3 70 15 0 12 -14 15 -63 15 -36 0 -68 5 -75 12 -9 9
      -12 131 -12 490 0 462 1 478 19 488 24 13 261 13 360 0 223 -29 311 -171 311
      -498 -1 -310 -82 -444 -293 -483 -95 -18 -97 -16 -97 90 0 96 3 101 58 101 42
      0 91 36 112 83 17 36 20 66 20 208 0 174 -7 217 -44 258 -32 36 -78 51 -160
      51 -64 0 -77 -3 -86 -20 -16 -30 -9 -802 7 -807 10 -4 13 82 15 394 l3 398 62
      3 c86 4 128 -15 153 -70 17 -37 20 -66 20 -201 0 -173 -8 -208 -55 -245 -15
      -12 -40 -22 -56 -22 -15 0 -39 -4 -53 -10 -26 -9 -26 -11 -26 -118 0 -71 4
      -112 12 -120 31 -31 194 1 274 54 113 75 154 176 161 399 9 262 -19 384 -112
      484 -55 59 -118 88 -217 101 -95 12 -346 12 -378 -1z" />
  </g>
</svg>